<svg width="22" height="22" viewBox="0 0 22 22" fill="none" xmlns="http://www.w3.org/2000/svg">
<rect width="22" height="22" rx="4" fill="url(#paint0_linear_1159_1006)"/>
<path d="M14.6953 11.6465C14.6953 12.459 14.5176 13.1875 14.1621 13.832C13.8066 14.4727 13.3574 14.9648 12.8145 15.3086C12.3613 15.6016 11.8672 15.791 11.332 15.877C10.8008 15.959 10.2344 16 9.63281 16H6.90234V7.27539H9.60938C10.2227 7.27539 10.7969 7.31445 11.332 7.39258C11.8672 7.4707 12.3691 7.66016 12.8379 7.96094C13.4121 8.32812 13.8652 8.82422 14.1973 9.44922C14.5293 10.0703 14.6953 10.8027 14.6953 11.6465ZM12.4453 11.6289C12.4453 11.0547 12.3457 10.5645 12.1465 10.1582C11.9512 9.74805 11.6484 9.42773 11.2383 9.19727C10.9414 9.0332 10.6289 8.94336 10.3008 8.92773C9.97656 8.91211 9.58789 8.9043 9.13477 8.9043H9.09375V14.3652H9.13477C9.62695 14.3652 10.041 14.3574 10.377 14.3418C10.7168 14.3223 11.0391 14.2168 11.3438 14.0254C11.7031 13.7988 11.9766 13.4863 12.1641 13.0879C12.3516 12.6895 12.4453 12.2031 12.4453 11.6289Z" fill="white"/>
<defs>
<linearGradient id="paint0_linear_1159_1006" x1="11" y1="0" x2="11" y2="22" gradientUnits="userSpaceOnUse">
<stop stop-color="#3F3E3F"/>
<stop offset="1" stop-color="#131313"/>
</linearGradient>
</defs>
</svg>
